<svg width="800" height="600" xmlns="http://www.w3.org/2000/svg">
 <!-- Created with Method Draw - http://github.com/duopixel/Method-Draw/ -->
 <g>
  <title>background</title>
  <rect fill="#fff" id="canvas_background" height="602" width="802" y="-1" x="-1"/>
  <g display="none" overflow="visible" y="0" x="0" height="100%" width="100%" id="canvasGrid">
   <rect fill="url(#gridpattern)" stroke-width="0" y="0" x="0" height="100%" width="100%"/>
  </g>
 </g>
 <g>
  <title>Layer 1</title>
  <path id="svg_2" d="m133.14258,478.34845c-38.57501,-5.85531 -71.60391,-32.0591 -81.6147,-65.24756c-4.76115,-16.94081 -1.97337,-34.71305 -2.91171,-52.0215c-0.177,-44.43332 -0.26741,-88.86688 -0.40042,-133.30032c4.5294,-13.79255 23.64704,-21.04668 38.18988,-14.2276c1.26511,-3.62316 0.33782,-10.12093 0.78128,-14.82771c-2.57898,-12.9369 7.96707,-26.09691 23.28449,-26.97239c8.79032,-0.05001 19.31445,5.79486 15.30837,-7.14805c-2.7162,-13.33039 9.24214,-28.51399 25.5976,-27.2852c15.62953,-1.26905 27.4984,12.64709 25.6126,25.54649c0.72704,7.70067 19.78561,-5.04572 26.44799,3.51523c8.49739,4.41244 14.30992,12.83165 12.70526,21.5361c0.49258,23.84489 -0.66354,47.84093 1.23935,71.57099c13.97535,-6.1898 33.88844,1.41566 36.75083,15.03302c-0.31659,42.30726 0.80697,84.6444 -0.85026,126.92732c-5.62555,43.49233 -52.90195,80.27107 -103.37259,77.65901c-5.59288,0.01302 -11.23468,0.06112 -16.76797,-0.75783l0.00001,0.00001zm34.51176,-11.55242c42.36603,-6.26444 75.69508,-42.10186 73.30824,-79.7864c0.32396,-36.42303 1.64143,-72.89967 0.09883,-109.2981c-0.98572,-13.30798 -26.20009,-10.08622 -24.56989,2.19338c-0.00768,26.99496 -0.01541,53.98991 -0.02317,80.98487c-7.85048,7.08333 -21.90191,2.81706 -31.31559,8.57393c-20.92754,7.98883 -34.22521,27.55132 -34.68135,47.24802c-11.28725,15.31315 -16.39735,-9.60803 -9.92296,-17.81815c7.48516,-24.76498 33.82438,-43.24276 62.75544,-45.66924c-0.23669,-56.97352 0.61284,-113.96755 -0.76015,-170.92457c-8.19132,-16.13407 -31.14465,-1.98298 -25.03565,12.14511c-0.60186,43.07444 -0.0626,86.15893 -0.90497,129.23031c-5.47132,7.65831 -15.83877,0.39541 -12.45709,-6.67207c-0.23373,-53.95694 -0.46752,-107.91388 -0.70127,-161.87082c-4.38993,-9.52917 -23.83878,-8.04037 -24.14487,2.41823c-0.24044,55.6824 -0.48088,111.36479 -0.72135,167.04719c-5.1177,6.3078 -15.62958,0.82365 -12.79879,-6.06174c-0.18904,-41.94354 0.52613,-83.9052 -0.72363,-125.83372c-0.31973,-12.47956 -24.20224,-12.17049 -24.52097,-0.59696c-0.47766,42.99399 0.12799,86.01098 -1.31027,128.98628c1.3541,10.94639 -16.26801,5.72486 -12.20772,-2.5556c-0.21531,-29.21569 0.58679,-58.46348 -0.77511,-87.65262c-8.03238,-18.01047 -32.05304,-3.1416 -25.35467,11.828c0.08056,51.80682 -0.53973,103.63945 0.95768,155.4302c3.6735,39.79168 47.45751,72.55641 93.00556,69.9415c4.29601,-0.15662 8.57923,-0.58587 12.80374,-1.287l-0.00001,-0.00001z" fill-opacity="null" stroke-opacity="null" stroke-width="1.5" stroke="#000" fill="#fff"/>
  <text font-style="normal" font-weight="bold" transform="matrix(9.52241, 0, 0, 16.0935, -2466.96, -4080.15)" xml:space="preserve" text-anchor="start" font-family="Euphoria, sans-serif" font-size="24" id="svg_4" y="278.62118" x="287.62284" fill-opacity="null" stroke-opacity="null" stroke-width="0" stroke="#000" fill="#000000">Nekele</text>
  <path id="svg_5" d="m178.34309,205.3135l-64.28935,85.87372l63.49458,29.50169l-58.68749,92.19283l-23.6945,-15.56816l16.80568,88.86375l66.78741,-38.77071l-28.19872,-16.20597l76.57191,-132.41871l-69.99537,-23.99998l67.59185,-89.48177l-38.55568,-13.43522l41.99291,-56.87034l-15.42641,-0.81731l-65.16468,78.02l30.76785,13.11621l0.00001,-0.00002z" stroke-width="1.5" stroke="#0f0f00" fill="#fff"/>
 </g>
</svg>