<svg width="800" height="600" xmlns="http://www.w3.org/2000/svg">
 <!-- Created with Method Draw - http://github.com/duopixel/Method-Draw/ -->
 <g>
  <title>background</title>
  <rect fill="#fff" id="canvas_background" height="602" width="802" y="-1" x="-1"/>
  <g display="none" overflow="visible" y="0" x="0" height="100%" width="100%" id="canvasGrid">
   <rect fill="url(#gridpattern)" stroke-width="0" y="0" x="0" height="100%" width="100%"/>
  </g>
 </g>
 <g>
  <title>Layer 1</title>
  <path id="svg_2" d="m133.14258,478.34845c-38.57501,-5.85531 -71.60391,-32.0591 -81.6147,-65.24756c-4.76115,-16.94081 -1.97337,-34.71305 -2.91171,-52.0215c-0.177,-44.43332 -0.26741,-88.86688 -0.40042,-133.30032c4.5294,-13.79255 23.64704,-21.04668 38.18988,-14.2276c1.26511,-3.62316 0.33782,-10.12093 0.78128,-14.82771c-2.57898,-12.9369 7.96707,-26.09691 23.28449,-26.97239c8.79032,-0.05001 19.31445,5.79486 15.30837,-7.14805c-2.7162,-13.33039 9.24214,-28.51399 25.5976,-27.2852c15.62953,-1.26905 27.4984,12.64709 25.6126,25.54649c0.72704,7.70067 19.78561,-5.04572 26.44799,3.51523c8.49739,4.41244 14.30992,12.83165 12.70526,21.5361c0.49258,23.84489 -0.66354,47.84093 1.23935,71.57099c13.97535,-6.1898 33.88844,1.41566 36.75083,15.03302c-0.31659,42.30726 0.80697,84.6444 -0.85026,126.92732c-5.62555,43.49233 -52.90195,80.27107 -103.37259,77.65901c-5.59288,0.01302 -11.23468,0.06112 -16.76797,-0.75783l0.00001,0.00001zm34.51176,-11.55242c42.36603,-6.26444 75.69508,-42.10186 73.30824,-79.7864c0.32396,-36.42303 1.64143,-72.89967 0.09883,-109.2981c-0.98572,-13.30798 -26.20009,-10.08622 -24.56989,2.19338c-0.00768,26.99496 -0.01541,53.98991 -0.02317,80.98487c-7.85048,7.08333 -21.90191,2.81706 -31.31559,8.57393c-20.92754,7.98883 -34.22521,27.55132 -34.68135,47.24802c-11.28725,15.31315 -16.39735,-9.60803 -9.92296,-17.81815c7.48516,-24.76498 33.82438,-43.24276 62.75544,-45.66924c-0.23669,-56.97352 0.61284,-113.96755 -0.76015,-170.92457c-8.19132,-16.13407 -31.14465,-1.98298 -25.03565,12.14511c-0.60186,43.07444 -0.0626,86.15893 -0.90497,129.23031c-5.47132,7.65831 -15.83877,0.39541 -12.45709,-6.67207c-0.23373,-53.95694 -0.46752,-107.91388 -0.70127,-161.87082c-4.38993,-9.52917 -23.83878,-8.04037 -24.14487,2.41823c-0.24044,55.6824 -0.48088,111.36479 -0.72135,167.04719c-5.1177,6.3078 -15.62958,0.82365 -12.79879,-6.06174c-0.18904,-41.94354 0.52613,-83.9052 -0.72363,-125.83372c-0.31973,-12.47956 -24.20224,-12.17049 -24.52097,-0.59696c-0.47766,42.99399 0.12799,86.01098 -1.31027,128.98628c1.3541,10.94639 -16.26801,5.72486 -12.20772,-2.5556c-0.21531,-29.21569 0.58679,-58.46348 -0.77511,-87.65262c-8.03238,-18.01047 -32.05304,-3.1416 -25.35467,11.828c0.08056,51.80682 -0.53973,103.63945 0.95768,155.4302c3.6735,39.79168 47.45751,72.55641 93.00556,69.9415c4.29601,-0.15662 8.57923,-0.58587 12.80374,-1.287l-0.00001,-0.00001z" fill-opacity="null" stroke-opacity="null" stroke-width="1.5" stroke="#000" fill="#fff"/>
  <text font-style="normal" font-weight="bold" transform="matrix(9.52241, 0, 0, 16.0935, -2466.96, -4080.15)" xml:space="preserve" text-anchor="start" font-family="Euphoria, sans-serif" font-size="24" id="svg_4" y="278.62118" x="287.62284" fill-opacity="null" stroke-opacity="null" stroke-width="0" stroke="#000" fill="#000000">Nekele</text>
  <path id="svg_7" d="m265.45278,403.02459l22.8312,-12.86679c-0.44882,-4.76729 -1.31623,-9.39185 -2.40135,-13.93802l-25.3622,-3.74223c-2.19519,-5.6347 -5.09401,-10.86073 -8.50151,-15.65798l9.66773,-25.33537c-3.17893,-3.30346 -6.61204,-6.31526 -10.22545,-9.08657l-21.5358,14.40605c-5.05017,-2.82984 -10.49124,-4.97915 -16.20307,-6.35953l-7.7827,-25.69118c-2.20725,-0.1776 -4.41386,-0.36524 -6.66483,-0.36524s-4.45134,0.1833 -6.66523,0.36524l-7.7056,25.46361c-5.86494,1.33615 -11.42615,3.51042 -16.60613,6.37519l-21.20042,-14.19414c-3.60883,2.77131 -7.0418,5.78311 -10.22048,9.08657l9.40168,24.63556c-3.66432,5.00413 -6.73218,10.52548 -9.03642,16.47618l-24.56154,3.61952c-1.08055,4.53979 -1.95249,9.15945 -2.39669,13.93746l22.04459,12.42791c0.24975,6.5421 1.26767,12.88247 3.07019,18.85313l-16.62925,19.59205c1.93442,4.27519 4.08809,8.42122 6.57953,12.31099l24.48282,-5.60047c4.01414,4.65385 8.58758,8.73139 13.63344,12.10337l-0.92799,26.69142c4.0209,1.93234 8.19867,3.54955 12.50399,4.84222l15.48888,-21.21435c2.74821,0.37385 5.53113,0.62564 8.36962,0.62564c3.07497,0 6.08213,-0.296 9.04086,-0.72915l15.56953,21.33204c4.31209,-1.29118 8.48349,-2.9083 12.50398,-4.84075l-0.9459,-27.17077c4.80937,-3.31767 9.17038,-7.2868 13.0151,-11.76807l25.11954,5.74322c2.49145,-3.88917 4.64541,-8.03078 6.57914,-12.30955l-17.16785,-20.23351c1.64917,-5.65539 2.5704,-11.62545 2.8386,-17.78368l-0.00001,0zm-37.94715,30.90715l-10.82467,7.50872l-6.65789,-10.89985c-3.46354,1.41955 -7.19243,2.28271 -11.12328,2.28271c-17.16778,0 -31.08066,-14.83062 -31.08066,-33.12081c0,-18.29093 13.91288,-33.11581 31.08066,-33.11581c17.16329,0 31.08126,14.82488 31.08126,33.11581c0,9.14015 -3.47491,17.40275 -9.09185,23.39771l6.61643,10.83151z" stroke-width="1.5" stroke="#000000" fill="#fff"/>
 </g>
</svg>