<svg width="800" height="600" xmlns="http://www.w3.org/2000/svg">
 <!-- Created with Method Draw - http://github.com/duopixel/Method-Draw/ -->
 <g>
  <title>background</title>
  <rect fill="#fff" id="canvas_background" height="602" width="802" y="-1" x="-1"/>
  <g display="none" overflow="visible" y="0" x="0" height="100%" width="100%" id="canvasGrid">
   <rect fill="url(#gridpattern)" stroke-width="0" y="0" x="0" height="100%" width="100%"/>
  </g>
 </g>
 <g>
  <title>Layer 1</title>
  <path id="svg_2" d="m223.61785,334.85534c-18.35122,-2.51676 -34.06399,-13.77979 -38.8264,-28.04501c-2.26501,-7.28158 -0.93879,-14.92053 -1.38518,-22.36012c-0.0842,-19.09854 -0.12721,-38.19718 -0.19049,-57.29577c2.15476,-5.92838 11.24956,-9.04638 18.168,-6.11537c0.60185,-1.55732 0.16071,-4.35023 0.37168,-6.37331c-1.22689,-5.5606 3.79016,-11.2171 11.07708,-11.5934c4.1818,-0.0215 9.18843,2.49077 7.28262,-3.07241c-1.29217,-5.72973 4.39675,-12.25602 12.1775,-11.72785c7.43541,-0.54547 13.08176,5.43603 12.18463,10.98051c0.34587,3.30994 9.41257,-2.16878 12.58205,1.51093c4.04245,1.89658 6.80763,5.51536 6.04425,9.25675c0.23434,10.24912 -0.31567,20.56321 0.58959,30.76298c6.64847,-2.66053 16.12168,0.60849 17.4834,6.46156c-0.15061,18.18471 0.3839,36.38225 -0.40449,54.55649c-2.67623,18.69408 -25.16694,34.50249 -49.17724,33.37976c-2.66069,0.0056 -5.34465,0.02627 -7.977,-0.32573l0.00001,0zm16.41822,-4.96551c20.15471,-2.69261 36.01028,-18.09642 34.87479,-34.29417c0.15412,-15.65552 0.78087,-31.33408 0.04701,-46.97902c-0.46893,-5.7201 -12.46412,-4.33531 -11.68859,0.94277c-0.00365,11.6031 -0.00733,23.2062 -0.01102,34.8093c-3.73469,3.04459 -10.41935,1.21084 -14.89771,3.68529c-9.95582,3.4338 -16.28189,11.84224 -16.49889,20.30836c-5.36966,6.58197 -7.80068,-4.12977 -4.72063,-7.65868c3.5609,-10.6446 16.09121,-18.58681 29.85452,-19.62977c-0.1126,-24.48862 0.29155,-48.98607 -0.36162,-73.4676c-3.89684,-6.93482 -14.81639,-0.85233 -11.91016,5.22027c-0.28632,18.51446 -0.02978,37.03323 -0.43052,55.54638c-2.60286,3.29173 -7.53495,0.16996 -5.92619,-2.86782c-0.11119,-23.19202 -0.22241,-46.38405 -0.33361,-69.57607c-2.08841,-4.09587 -11.34078,-3.45595 -11.48639,1.03942c-0.11438,23.93367 -0.22877,47.86733 -0.34316,71.801c-2.43463,2.71125 -7.43543,0.35402 -6.08874,-2.60549c-0.08993,-18.02837 0.25029,-36.06453 -0.34425,-54.08644c-0.1521,-5.36402 -11.51368,-5.23118 -11.66531,-0.25659c-0.22724,18.47988 0.06089,36.96964 -0.62333,55.44149c0.64418,4.70503 -7.73915,2.46069 -5.80756,-1.09846c-0.10243,-12.55763 0.27915,-25.12904 -0.36874,-37.67526c-3.82123,-7.74134 -15.24853,-1.35034 -12.06193,5.08396c0.03833,22.26785 -0.25677,44.54679 0.4556,66.80773c1.74759,17.10345 22.57687,31.18653 44.24536,30.06258c2.04373,-0.06732 4.08138,-0.25182 6.0911,-0.55318l-0.00001,0z" fill-opacity="null" stroke-opacity="null" stroke-width="1.5" stroke="#000" fill="#fff"/>
  <text font-style="normal" font-weight="bold" transform="matrix(5.37663, 0, 0, 7.29845, -1270.22, -1700.69)" xml:space="preserve" text-anchor="start" font-family="Euphoria, sans-serif" font-size="24" id="svg_4" y="275.51434" x="289.19807" fill-opacity="null" stroke-opacity="null" stroke-width="0" stroke="#000" fill="#000000">Nekele</text>
 </g>
</svg>